<svg xmlns="http://www.w3.org/2000/svg" viewBox="0 0 32 32" role="img" aria-label="GitHub icon">
  <path d="M16 5C9.9 5 5 9.9 5 16c0 4.9 3.2 9 7.6 10.4.6.1.8-.3.8-.6v-2.2c-3.1.7-3.8-1.3-3.8-1.3-.5-1.3-1.2-1.7-1.2-1.7-1-.7.1-.7.1-.7 1.1.1 1.7 1.2 1.7 1.2 1 .1 1.7.9 2 1.4.9.2 1.8.2 2.6-.1.1-.7.4-1.3.8-1.7-2.5-.3-5.1-1.2-5.1-5.4 0-1.2.4-2.2 1.1-3-.1-.3-.5-1.4.1-2.9 0 0 .9-.3 3 .1.9-.3 1.9-.4 2.9-.4s2 .1 2.9.4c2.1-.4 3-.1 3-.1.6 1.5.2 2.6.1 2.9.7.8 1.1 1.8 1.1 3 0 4.2-2.6 5.1-5.1 5.4.5.5.9 1.3.9 2.5v3.7c0 .3.2.7.8.6A11 11 0 0 0 27 16c0-6.1-4.9-11-11-11Z" fill="none" stroke="#39ff14" stroke-width="1.7" stroke-linejoin="round"/>
</svg>
